<svg id="visual" viewBox="0 0 1920 1080" width="1920" height="1080" xmlns="http://www.w3.org/2000/svg" xmlns:xlink="http://www.w3.org/1999/xlink" version="1.1"><g stroke-width="1" stroke-linejoin="bevel"><path d="M1126 340L1112 0L753 324Z" fill="#2b50aa" stroke="#2b50aa"></path><path d="M1112 0L752 0L753 324Z" fill="#2e2f3f" stroke="#2e2f3f"></path><path d="M753 324L1143 725L1126 340Z" fill="#333b65" stroke="#333b65"></path><path d="M1126 340L1509 0L1112 0Z" fill="#30334b" stroke="#30334b"></path><path d="M1500 399L1509 0L1126 340Z" fill="#333f72" stroke="#333f72"></path><path d="M1143 725L1500 399L1126 340Z" fill="#334380" stroke="#334380"></path><path d="M368 379L727 739L753 324Z" fill="#333b65" stroke="#333b65"></path><path d="M753 324L727 739L1143 725Z" fill="#272727" stroke="#272727"></path><path d="M752 0L369 0L753 324Z" fill="#2e2f3f" stroke="#2e2f3f"></path><path d="M369 0L368 379L753 324Z" fill="#32478e" stroke="#32478e"></path><path d="M0 384L365 695L368 379Z" fill="#272727" stroke="#272727"></path><path d="M368 379L365 695L727 739Z" fill="#272727" stroke="#272727"></path><path d="M1143 725L1566 680L1500 399Z" fill="#30334b" stroke="#30334b"></path><path d="M1500 399L1920 349L1509 0Z" fill="#32478e" stroke="#32478e"></path><path d="M727 739L797 1080L1143 725Z" fill="#30334b" stroke="#30334b"></path><path d="M1143 725L1567 1080L1566 680Z" fill="#2e2f3f" stroke="#2e2f3f"></path><path d="M370 1080L797 1080L727 739Z" fill="#333f72" stroke="#333f72"></path><path d="M797 1080L1162 1080L1143 725Z" fill="#2b50aa" stroke="#2b50aa"></path><path d="M369 0L0 0L368 379Z" fill="#2e2f3f" stroke="#2e2f3f"></path><path d="M0 0L0 384L368 379Z" fill="#333f72" stroke="#333f72"></path><path d="M365 695L370 1080L727 739Z" fill="#2b2b33" stroke="#2b2b33"></path><path d="M1920 759L1920 349L1566 680Z" fill="#333b65" stroke="#333b65"></path><path d="M1566 680L1920 349L1500 399Z" fill="#2e2f3f" stroke="#2e2f3f"></path><path d="M1920 349L1920 0L1509 0Z" fill="#2f4c9c" stroke="#2f4c9c"></path><path d="M0 715L370 1080L365 695Z" fill="#333f72" stroke="#333f72"></path><path d="M0 384L0 715L365 695Z" fill="#333b65" stroke="#333b65"></path><path d="M1162 1080L1567 1080L1143 725Z" fill="#30334b" stroke="#30334b"></path><path d="M1567 1080L1920 759L1566 680Z" fill="#30334b" stroke="#30334b"></path><path d="M0 715L0 1080L370 1080Z" fill="#2e2f3f" stroke="#2e2f3f"></path><path d="M1567 1080L1920 1080L1920 759Z" fill="#2e2f3f" stroke="#2e2f3f"></path></g></svg>