<?xml version="1.0" encoding="iso-8859-1"?>
<!-- Uploaded to: SVG Repo, www.svgrepo.com, Generator: SVG Repo Mixer Tools -->
<svg version="1.1" id="Layer_1" xmlns="http://www.w3.org/2000/svg" xmlns:xlink="http://www.w3.org/1999/xlink" 
	 viewBox="0 0 512 512" xml:space="preserve">
<polygon style="fill:#F2F2F2;" points="418.472,33.67 93.528,33.67 93.528,503.983 503.983,503.983 503.983,119.182 "/>
<g>
	<polygon style="fill:#E5E5E5;" points="161.144,33.67 93.528,33.67 93.528,503.983 464.518,503.983 	"/>
	<polygon style="fill:#E5E5E5;" points="418.472,119.182 503.983,119.182 418.472,33.67 	"/>
</g>
<path style="fill:#808080;" d="M214.313,298.756H24.05c-8.855,0-16.033-7.179-16.033-16.033V24.05
	c0-8.855,7.179-16.033,16.033-16.033h190.263c8.855,0,16.033,7.179,16.033,16.033v258.672
	C230.347,291.577,223.168,298.756,214.313,298.756z"/>
<circle style="fill:#F7D04A;" cx="358.614" cy="367.165" r="111.165"/>
<path style="fill:#F3B41B;" d="M388.543,448.401c-61.395,0-111.165-49.771-111.165-111.165c0-23.049,7.015-44.457,19.025-62.211
	c-29.538,19.982-48.954,53.793-48.954,92.14c0,61.395,49.771,111.165,111.165,111.165c38.347,0,72.158-19.416,92.14-48.954
	C433,441.386,411.591,448.401,388.543,448.401z"/>
<rect x="33.67" y="33.67" style="fill:#62C9CC;" width="171.023" height="42.756"/>
<polygon style="fill:#F2F2F2;" points="124.17,33.67 81.414,76.426 113.481,76.426 156.237,33.67 "/>
<g>
	<rect x="33.67" y="102.079" style="fill:#EF9D3C;" width="34.205" height="34.205"/>
	<rect x="102.079" y="102.079" style="fill:#EF9D3C;" width="34.205" height="34.205"/>
	<rect x="170.489" y="102.079" style="fill:#EF9D3C;" width="34.205" height="34.205"/>
	<rect x="33.67" y="170.489" style="fill:#EF9D3C;" width="34.205" height="34.205"/>
	<rect x="102.079" y="170.489" style="fill:#EF9D3C;" width="34.205" height="34.205"/>
	<rect x="33.67" y="238.898" style="fill:#EF9D3C;" width="34.205" height="34.205"/>
	<rect x="102.079" y="238.898" style="fill:#EF9D3C;" width="34.205" height="34.205"/>
</g>
<polygon style="fill:#F7D04A;" points="170.489,170.489 170.489,238.898 170.489,273.102 204.693,273.102 204.693,238.898 
	204.693,170.489 "/>
<polygon style="fill:#62C9CC;" points="409.312,219.039 433.499,194.853 330.707,92.061 300.475,86.015 306.521,116.248 "/>
<polygon style="fill:#F7D04A;" points="330.707,92.061 300.475,86.014 306.521,116.248 316.477,126.203 340.663,102.016 "/>
<path style="fill:#50A9A9;" d="M456.93,243.981l1.511-1.511c6.262-6.262,6.262-16.413,0-22.674l-43.082-43.082L391.173,200.9
	l43.082,43.082C440.517,250.243,450.668,250.243,456.93,243.981z"/>
<path d="M503.983,409.386c4.428,0,8.017-3.588,8.017-8.017V119.182c0-2.126-0.844-4.164-2.347-5.669l-85.511-85.511
	c-1.505-1.503-3.543-2.347-5.669-2.347H238.363V24.05c0-13.261-10.789-24.05-24.05-24.05H24.05C10.789,0,0,10.789,0,24.05v258.672
	c0,13.261,10.789,24.05,24.05,24.05h61.461v197.211c0,4.428,3.588,8.017,8.017,8.017h410.455c4.428,0,8.017-3.588,8.017-8.017
	v-59.858c0-4.428-3.588-8.017-8.017-8.017s-8.017,3.588-8.017,8.017v51.841H101.545V306.772h112.768
	c13.261,0,24.05-10.789,24.05-24.05V144.83c0-4.428-3.588-8.017-8.017-8.017s-8.017,3.588-8.017,8.017v137.893
	c0,4.421-3.596,8.017-8.017,8.017H24.05c-4.421,0-8.017-3.596-8.017-8.017V24.05c0-4.421,3.596-8.017,8.017-8.017h190.263
	c4.421,0,8.017,3.596,8.017,8.017v78.029c0,4.428,3.588,8.017,8.017,8.017s8.017-3.588,8.017-8.017V41.687h172.119
	c-0.012,0.177-0.027,0.354-0.027,0.534v76.96c0,4.428,3.588,8.017,8.017,8.017h76.96c0.181,0,0.357-0.015,0.534-0.027V401.37
	C495.967,405.798,499.555,409.386,503.983,409.386z M426.489,53.024l58.141,58.141h-58.141V53.024z"/>
<path d="M198.28,367.699h-53.445c-4.428,0-8.017,3.588-8.017,8.017c0,4.428,3.588,8.017,8.017,8.017h53.445
	c4.428,0,8.017-3.588,8.017-8.017C206.296,371.288,202.708,367.699,198.28,367.699z"/>
<path d="M198.28,410.455h-53.445c-4.428,0-8.017,3.588-8.017,8.017s3.588,8.017,8.017,8.017h53.445c4.428,0,8.017-3.588,8.017-8.017
	S202.708,410.455,198.28,410.455z"/>
<path d="M263.678,308.749c-3.926-2.043-8.768-0.522-10.815,3.404c-8.786,16.859-13.431,35.882-13.431,55.012
	c0,65.717,53.465,119.182,119.182,119.182s119.182-53.465,119.182-119.182S424.33,247.983,358.614,247.983
	c-32.766,0-63.308,13.023-86.001,36.671c-3.066,3.195-2.962,8.269,0.233,11.335c3.196,3.067,8.27,2.962,11.335-0.233
	c19.641-20.467,46.076-31.739,74.434-31.739c56.876,0,103.148,46.272,103.148,103.148S415.49,470.313,358.614,470.313
	s-103.148-46.272-103.148-103.148c0-16.798,3.908-32.813,11.616-47.601C269.127,315.637,267.603,310.796,263.678,308.749z"/>
<path d="M324.409,419.006c-4.428,0-8.017,3.588-8.017,8.017s3.588,8.017,8.017,8.017h24.05v9.086c0,4.428,3.588,8.017,8.017,8.017
	c4.428,0,8.017-3.588,8.017-8.017v-9.086h12.292c13.261,0,24.05-10.789,24.05-24.05v-26.722c0-13.217-10.719-23.98-23.92-24.05
	l-12.423-0.366v-44.528h28.326c4.428,0,8.017-3.588,8.017-8.017c0-4.428-3.588-8.017-8.017-8.017h-28.326v-9.086
	c0-4.428-3.588-8.017-8.017-8.017c-4.428,0-8.017,3.588-8.017,8.017v9.086h-8.017c-13.261,0-24.05,10.789-24.05,24.05v27.791
	c0,13.217,10.719,23.98,23.92,24.05l8.147,0.239v43.585H324.409z M340.679,359.151c-0.078-0.002-0.157-0.003-0.236-0.003
	c-4.421,0-8.017-3.596-8.017-8.017V323.34c0-4.421,3.596-8.017,8.017-8.017h8.017v44.057L340.679,359.151z M364.493,375.892
	l12.056,0.355c0.078,0.002,0.157,0.003,0.236,0.003c4.421,0,8.017,3.596,8.017,8.017v26.722c0,4.421-3.596,8.017-8.017,8.017
	h-12.292V375.892z"/>
<path d="M212.71,33.67c0-4.428-3.588-8.017-8.017-8.017H33.67c-4.428,0-8.017,3.588-8.017,8.017v42.756
	c0,4.428,3.588,8.017,8.017,8.017h171.023c4.428,0,8.017-3.588,8.017-8.017V33.67z M196.676,68.409H41.687V41.687h154.99V68.409z"/>
<path d="M75.891,102.079c0-4.428-3.588-8.017-8.017-8.017H33.67c-4.428,0-8.017,3.588-8.017,8.017v34.205
	c0,4.428,3.588,8.017,8.017,8.017h34.205c4.428,0,8.017-3.588,8.017-8.017V102.079z M59.858,128.267H41.687v-18.171h18.171V128.267z
	"/>
<path d="M144.301,102.079c0-4.428-3.588-8.017-8.017-8.017h-34.205c-4.428,0-8.017,3.588-8.017,8.017v34.205
	c0,4.428,3.588,8.017,8.017,8.017h34.205c4.428,0,8.017-3.588,8.017-8.017V102.079z M128.267,128.267h-18.171v-18.171h18.171
	V128.267z"/>
<path d="M212.71,102.079c0-4.428-3.588-8.017-8.017-8.017h-34.205c-4.428,0-8.017,3.588-8.017,8.017v34.205
	c0,4.428,3.588,8.017,8.017,8.017h34.205c4.428,0,8.017-3.588,8.017-8.017V102.079z M196.676,128.267h-18.171v-18.171h18.171
	V128.267z"/>
<path d="M75.891,170.489c0-4.428-3.588-8.017-8.017-8.017H33.67c-4.428,0-8.017,3.588-8.017,8.017v34.205
	c0,4.428,3.588,8.017,8.017,8.017h34.205c4.428,0,8.017-3.588,8.017-8.017V170.489z M59.858,196.676H41.687v-18.171h18.171V196.676z
	"/>
<path d="M144.301,170.489c0-4.428-3.588-8.017-8.017-8.017h-34.205c-4.428,0-8.017,3.588-8.017,8.017v34.205
	c0,4.428,3.588,8.017,8.017,8.017h34.205c4.428,0,8.017-3.588,8.017-8.017V170.489z M128.267,196.676h-18.171v-18.171h18.171
	V196.676z"/>
<path d="M67.875,230.881H33.67c-4.428,0-8.017,3.588-8.017,8.017v34.205c0,4.428,3.588,8.017,8.017,8.017h34.205
	c4.428,0,8.017-3.588,8.017-8.017v-34.205C75.891,234.469,72.303,230.881,67.875,230.881z M59.858,265.086H41.687v-18.171h18.171
	V265.086z"/>
<path d="M136.284,230.881h-34.205c-4.428,0-8.017,3.588-8.017,8.017v34.205c0,4.428,3.588,8.017,8.017,8.017h34.205
	c4.428,0,8.017-3.588,8.017-8.017v-34.205C144.301,234.469,140.712,230.881,136.284,230.881z M128.267,265.086h-18.171v-18.171
	h18.171V265.086z"/>
<path d="M204.693,162.472h-34.205c-4.428,0-8.017,3.588-8.017,8.017v102.614c0,4.428,3.588,8.017,8.017,8.017h34.205
	c4.428,0,8.017-3.588,8.017-8.017V170.489C212.71,166.06,209.122,162.472,204.693,162.472z M196.676,265.086h-18.171v-86.58h18.171
	V265.086z"/>
<path d="M336.377,86.391c-1.12-1.119-2.545-1.882-4.097-2.192l-29.706-5.941l-14.301-15.769c-2.975-3.282-8.047-3.529-11.324-0.554
	c-3.279,2.974-3.527,8.043-0.554,11.324c0,0,16.484,18.037,17.032,18.398l5.232,26.161c0.31,1.552,1.073,2.977,2.192,4.097
	l127.735,127.736c4.689,4.688,10.847,7.031,17.006,7.031c6.159,0,12.317-2.343,17.005-7.031c0,0,0,0,0.001,0l1.511-1.512
	c9.375-9.377,9.375-24.635,0-34.011l-1.134-1.134l12.471-12.471c3.141-3.144,3.074-8.422-0.15-11.482l-43.667-41.467
	c-3.209-3.05-8.283-2.917-11.333,0.293c-3.05,3.21-2.917,8.284,0.293,11.333l37.701,35.802l-6.654,6.654L336.377,86.391z
	 M310.694,96.234l16.061,3.212l77.266,77.268l-12.848,12.848l-77.268-77.266L310.694,96.234z M452.773,236.801l-1.51,1.511
	c-3.128,3.124-8.213,3.127-11.338,0l-37.412-37.413l12.847-12.848l37.413,37.413C455.899,228.589,455.898,233.675,452.773,236.801z"
	/>
</svg>